<?xml version="1.0" standalone="no"?>
<!DOCTYPE svg PUBLIC "-//W3C//DTD SVG 20010904//EN"
 "http://www.w3.org/TR/2001/REC-SVG-20010904/DTD/svg10.dtd">
<svg version="1.0" xmlns="http://www.w3.org/2000/svg"
 width="100.000000pt" height="100.000000pt" viewBox="0 0 100.000000 100.000000"
 preserveAspectRatio="xMidYMid meet">

<g transform="translate(0.000000,100.000000) scale(0.100000,-0.100000)"
fill="#000000" stroke="none">
<path d="M255 781 c-79 -36 -124 -118 -111 -205 12 -77 70 -177 145 -253 66
-66 180 -143 211 -143 31 0 145 77 211 143 110 110 167 247 140 338 -23 77
-103 139 -181 139 -48 0 -110 -31 -143 -69 l-27 -33 -27 33 c-54 64 -143 85
-218 50z m141 -17 c19 -9 50 -34 68 -56 l34 -39 50 50 c76 76 158 82 232 15
71 -64 76 -145 19 -262 -56 -115 -254 -284 -311 -266 -44 13 -133 77 -190 136
-98 99 -150 217 -134 302 8 43 58 103 101 122 41 18 90 17 131 -2z"/>
</g>
</svg>
