<?xml version="1.0" standalone="no"?>
<!DOCTYPE svg PUBLIC "-//W3C//DTD SVG 20010904//EN"
 "http://www.w3.org/TR/2001/REC-SVG-20010904/DTD/svg10.dtd">
<svg version="1.0" xmlns="http://www.w3.org/2000/svg"
 width="100.000000pt" height="100.000000pt" viewBox="0 0 100.000000 100.000000"
 preserveAspectRatio="xMidYMid meet">

<g transform="translate(0.000000,100.000000) scale(0.100000,-0.100000)"
fill="#000000" stroke="none">
<path d="M250 794 c-80 -34 -120 -101 -120 -197 0 -54 6 -76 36 -136 44 -88
132 -185 225 -247 99 -66 118 -66 210 -5 99 65 188 161 233 252 30 60 36 82
36 136 0 97 -41 164 -122 198 -76 31 -158 15 -220 -43 l-28 -26 -27 26 c-62
58 -149 74 -223 42z m146 -63 c18 -11 45 -36 60 -55 16 -20 35 -36 43 -36 8 0
30 18 49 40 45 54 85 74 134 67 78 -10 128 -69 128 -148 0 -103 -126 -272
-262 -351 l-46 -28 -48 27 c-135 75 -264 248 -264 353 0 111 117 185 206 131z"/>
</g>
</svg>
